<svg fill="#000000" height="800px" width="800px" version="1.1" id="Capa_1" xmlns="http://www.w3.org/2000/svg" xmlns:xlink="http://www.w3.org/1999/xlink" 
	 viewBox="0 0 428.563 428.563" xml:space="preserve">
<path d="M80.387,137.702l31.847-1.304c11.737,13.083,27.573,21.202,44.665,22.863c1.741,0.169,9.961,0.254,11.647,0.127
	c16.858-1.268,32.651-8.812,44.585-21.311l14.614-0.159c0.011,0,0.021,0.002,0.032,0.002c0.012,0,0.024-0.002,0.037-0.002
	l19.222-0.208c2.909-0.031,5.659-1.328,7.535-3.551c1.876-2.224,2.69-5.153,2.231-8.026L246.455,61.38
	C241.048,27.539,204.656,0,165.331,0c-0.631,0-3.131,0-3.758,0C122.25,0,85.859,27.539,80.452,61.38l-10.349,64.749
	c-0.474,2.962,0.408,5.981,2.4,8.224C74.496,136.594,77.371,137.835,80.387,137.702z M162.539,139.57
	c-11.684-0.224-22.781-4.748-31.545-12.639c13.833-11.374,22.843-28.444,24.709-47.466c6.58-1.932,13.025-4.876,19.04-8.898
	c5.302,20.263,14.656,37.633,26.962,50.36c-0.042,0.041-0.082,0.084-0.123,0.126c-0.127,0.126-0.245,0.261-0.365,0.394
	c-0.08,0.089-0.166,0.17-0.243,0.263C191.246,133.342,177.211,139.856,162.539,139.57z M226.705,64.544l8.517,53.293l-5.074,0.055
	c-19.294-10.458-33.45-33.826-38.421-63.405c4.801-6.364,8.839-13.907,11.832-22.681C215.808,40.017,224.662,51.754,226.705,64.544z
	 M100.201,64.536C104.058,40.399,132.163,20,161.574,20c0.543,0,3.21,0,3.758,0c6.844,0,13.612,1.124,20.025,3.122
	c-9.318,30.364-33.915,41.507-55.283,38.836c-5.48-0.686-10.478,3.206-11.162,8.687c-0.684,5.48,3.204,10.479,8.684,11.162
	c2.461,0.307,4.968,0.471,7.502,0.503c-2.814,14.908-11.68,27.547-24.311,34.132l-19.005,0.774L100.201,64.536z M367.64,249H244.898
	c-5.522,0-10.497,4.171-10.497,9.693v15.944c0,5.522,4.478,10,10,10s10-4.478,10-10V269h103v78.13l-13.299-10.976
	c-1.794-1.487-3.932-2.154-6.262-2.154h-26.438v-25c0-5.522-4.163-10-9.686-10H178.973c-5.523,0-9.572,4.478-9.572,10v109.717
	c0,3.876,2.025,7.402,5.533,9.051c3.217,1.816,8.645,0.159,10.475-1.358L212.38,404h89.335c5.522,0,9.686-4.466,9.686-9.988V354
	h22.832l27.025,22.255c1.829,1.518,4.096,2.228,6.384,2.228c1.442,0,2.775-0.349,4.131-0.986c3.508-1.648,5.627-5.212,5.627-9.088
	V258.693C377.401,253.171,373.163,249,367.64,249z M291.401,384h-82.627c-2.331,0-4.374,0.82-6.168,2.308l-13.205,11.13V319h102V384
	z M139.765,203.434c-24.667,6.781-41.142,23.239-45.2,45.154L73.184,364h55.65c5.522,0,10,4.477,10,10c0,5.522-4.477,10-10,10
	H61.162c-2.971,0-5.788-1.321-7.688-3.605s-2.686-5.294-2.145-8.215l23.57-127.233c5.508-29.746,27.218-51.906,59.564-60.797
	c17.348-4.77,36.612-5.108,54.246-0.952c18.988,4.474,35.043,13.705,46.428,26.696c3.64,4.153,3.224,10.472-0.93,14.111
	c-4.152,3.641-10.47,3.225-14.111-0.93C202.745,203.278,169.712,195.203,139.765,203.434z"/>
</svg>